<svg xmlns="http://www.w3.org/2000/svg" viewBox="0 7.349999904632568 206.5 51.25" data-asc="0.968" width="206.5" height="51.25"><defs/><g fill="#c53678"><g transform="translate(0, 0)"><path d="M0 48.40L0 13.40L17.25 13.40Q23.10 13.40 27.55 15.52Q32 17.65 34.50 21.55Q37 25.45 37 30.85Q37 36.30 34.50 40.22Q32 44.15 27.55 46.27Q23.10 48.40 17.25 48.40L0 48.40M11.80 39.20L16.75 39.20Q19.25 39.20 21.13 38.25Q23 37.30 24.05 35.42Q25.10 33.55 25.10 30.85Q25.10 28.20 24.05 26.35Q23 24.50 21.13 23.55Q19.25 22.60 16.75 22.60L11.80 22.60L11.80 39.20ZM40.95 48.40L40.95 21.05L52.25 21.05L52.25 48.40L40.95 48.40M46.60 18.85Q43.50 18.85 41.65 17.20Q39.80 15.55 39.80 13.10Q39.80 10.65 41.65 9.00Q43.50 7.35 46.60 7.35Q49.70 7.35 51.55 8.90Q53.40 10.45 53.40 12.90Q53.40 15.50 51.55 17.17Q49.70 18.85 46.60 18.85ZM71.15 58.60Q67.10 58.60 63.55 57.75Q60 56.90 57.45 55.20L61.25 47.50Q62.85 48.75 65.33 49.48Q67.80 50.20 70 50.20Q73.50 50.20 75 48.73Q76.50 47.25 76.50 44.50L76.50 42.20L77 33.70L77.05 25.20L77.05 21.05L87.80 21.05L87.80 42.95Q87.80 50.90 83.40 54.75Q79 58.60 71.15 58.60M68.95 46.90Q65.50 46.90 62.50 45.27Q59.50 43.65 57.65 40.70Q55.80 37.75 55.80 33.70Q55.80 29.65 57.65 26.70Q59.50 23.75 62.50 22.15Q65.50 20.55 68.95 20.55Q72.50 20.55 74.78 21.95Q77.05 23.35 78.15 26.27Q79.25 29.20 79.25 33.70Q79.25 38.20 78.15 41.13Q77.05 44.05 74.78 45.48Q72.50 46.90 68.95 46.90M71.95 38.10Q73.30 38.10 74.35 37.55Q75.40 37 76 36Q76.60 35 76.60 33.70Q76.60 32.35 76 31.37Q75.40 30.40 74.35 29.87Q73.30 29.35 71.95 29.35Q70.65 29.35 69.58 29.87Q68.50 30.40 67.88 31.37Q67.25 32.35 67.25 33.70Q67.25 35 67.88 36Q68.50 37 69.58 37.55Q70.65 38.10 71.95 38.10ZM92.80 48.40L92.80 21.05L104.10 21.05L104.10 48.40L92.80 48.40M98.45 18.85Q95.35 18.85 93.50 17.20Q91.65 15.55 91.65 13.10Q91.65 10.65 93.50 9.00Q95.35 7.35 98.45 7.35Q101.55 7.35 103.40 8.90Q105.25 10.45 105.25 12.90Q105.25 15.50 103.40 17.17Q101.55 18.85 98.45 18.85ZM127.35 48.90Q123.80 48.90 121.48 47.38Q119.15 45.85 118.05 42.72Q116.95 39.60 116.95 34.75Q116.95 29.80 117.98 26.67Q119.00 23.55 121.30 22.05Q123.60 20.55 127.35 20.55Q130.95 20.55 133.95 22.27Q136.95 24.00 138.75 27.17Q140.55 30.35 140.55 34.75Q140.55 39.15 138.75 42.32Q136.95 45.50 133.95 47.20Q130.95 48.90 127.35 48.90M109.10 58.10L109.10 21.05L119.85 21.05L119.85 24.75L119.90 34.75L120.40 44.75L120.40 58.10L109.10 58.10M124.65 40.10Q125.90 40.10 126.90 39.50Q127.90 38.90 128.50 37.70Q129.10 36.50 129.10 34.75Q129.10 32.95 128.50 31.75Q127.90 30.55 126.90 29.95Q125.90 29.35 124.65 29.35Q123.40 29.35 122.40 29.95Q121.40 30.55 120.80 31.75Q120.20 32.95 120.20 34.75Q120.20 36.50 120.80 37.70Q121.40 38.90 122.40 39.50Q123.40 40.10 124.65 40.10ZM160.65 48.40L160.65 43.55L159.85 42.25L159.85 33.05Q159.85 31.05 158.63 30.00Q157.40 28.95 154.65 28.95Q152.80 28.95 150.90 29.52Q149.00 30.10 147.65 31.10L144.05 23.65Q146.45 22.15 149.80 21.35Q153.15 20.55 156.35 20.55Q163.40 20.55 167.28 23.70Q171.15 26.85 171.15 33.70L171.15 48.40L160.65 48.40M152.90 48.90Q149.55 48.90 147.30 47.75Q145.05 46.60 143.90 44.67Q142.75 42.75 142.75 40.40Q142.75 37.75 144.10 35.90Q145.45 34.05 148.23 33.10Q151.00 32.15 155.25 32.15L160.95 32.15L160.95 37.60L157.05 37.60Q155.25 37.60 154.43 38.17Q153.60 38.75 153.60 39.90Q153.60 40.85 154.33 41.47Q155.05 42.10 156.30 42.10Q157.45 42.10 158.43 41.47Q159.40 40.85 159.85 39.50L161.30 42.85Q160.65 45.90 158.55 47.40Q156.45 48.90 152.90 48.90ZM182.05 58.60Q179.80 58.60 177.48 57.92Q175.15 57.25 173.75 56.15L177.50 48.40Q178.35 49.05 179.43 49.45Q180.50 49.85 181.50 49.85Q183 49.85 183.80 49.23Q184.60 48.60 185.10 47.35L186.25 44.45L187.05 43.35L195.80 21.05L206.50 21.05L195.25 48.95Q193.75 52.70 191.78 54.80Q189.80 56.90 187.38 57.75Q184.95 58.60 182.05 58.60M184.70 49.65L172.80 21.05L184.40 21.05L192.60 42.35L184.70 49.65Z"/></g></g></svg>